<svg width="34" height="32" viewBox="0 0 34 32" fill="none" xmlns="http://www.w3.org/2000/svg">
<path d="M15 16.5H11.5V20L4.5 16.5H1V1H15V16.5Z" stroke="white"/>
<path d="M19 27.5H22.5V31L29.5 27.5H33V12H19V27.5Z" stroke="white"/>
<path d="M20 1.5H25.5V8.5M25.5 8.5L28.5 6.5M25.5 8.5L22.5 6.5" stroke="white"/>
<path d="M13.5 29L8 29L8 22M8 22L5 24M8 22L11 24" stroke="white"/>
<path d="M25 16.5824L24.5098 16.4841L25 16.5824ZM27.5 19.2198L27.5463 19.7176L27.5582 18.7232L27.5 19.2198ZM28 14.5C27.4552 14.5 26.6997 14.592 26.0303 14.8634C25.3684 15.1317 24.682 15.6249 24.5098 16.4841L25.4902 16.6807C25.5663 16.3014 25.8799 16.0034 26.4059 15.7901C26.9244 15.5799 27.5448 15.5 28 15.5V14.5ZM24.5098 16.4841C24.3469 17.2967 24.427 17.9524 24.7031 18.4652C24.9786 18.977 25.414 19.2809 25.8363 19.4586C26.2547 19.6347 26.6821 19.6969 26.9935 19.7178C27.1515 19.7284 27.2854 19.7287 27.3814 19.7262C27.4295 19.725 27.4683 19.7231 27.4963 19.7213C27.5103 19.7205 27.5216 19.7197 27.53 19.719C27.5342 19.7187 27.5377 19.7184 27.5404 19.7182C27.5418 19.718 27.543 19.7179 27.5439 19.7178C27.5444 19.7178 27.5449 19.7178 27.5453 19.7177C27.5455 19.7177 27.5457 19.7177 27.5458 19.7177C27.5461 19.7177 27.5463 19.7176 27.5 19.2198C27.4537 18.7219 27.4539 18.7219 27.4541 18.7219C27.4542 18.7219 27.4544 18.7219 27.4545 18.7219C27.4547 18.7218 27.4548 18.7218 27.4549 18.7218C27.4552 18.7218 27.4552 18.7218 27.4551 18.7218C27.4549 18.7218 27.4539 18.7219 27.4523 18.722C27.449 18.7223 27.4431 18.7227 27.4346 18.7232C27.4177 18.7243 27.3909 18.7257 27.3557 18.7266C27.2851 18.7284 27.1826 18.7282 27.0604 18.7201C26.8114 18.7034 26.5039 18.6546 26.2241 18.5369C25.9481 18.4208 25.7219 18.2481 25.5836 17.9912C25.4459 17.7354 25.36 17.3304 25.4902 16.6807L24.5098 16.4841ZM27.5 19.2198C27.5582 18.7232 27.5581 18.7232 27.5579 18.7231C27.5578 18.7231 27.5576 18.7231 27.5574 18.7231C27.5571 18.7231 27.5567 18.723 27.5563 18.723C27.5553 18.7228 27.5541 18.7227 27.5527 18.7225C27.5497 18.7222 27.5457 18.7218 27.5407 18.7212C27.5306 18.7201 27.5163 18.7186 27.4981 18.7169C27.4617 18.7133 27.4097 18.7086 27.3442 18.7037C27.2134 18.6938 27.0283 18.683 26.8066 18.6787C26.3662 18.6701 25.7689 18.6868 25.1634 18.7933C24.5654 18.8984 23.913 19.0989 23.4001 19.4896C22.8645 19.8977 22.5 20.5016 22.5 21.3297H23.5C23.5 20.839 23.698 20.5199 24.0061 20.2851C24.337 20.033 24.8096 19.8708 25.3366 19.7782C25.8561 19.6868 26.3838 19.6706 26.7871 19.6785C26.9874 19.6824 27.1538 19.6922 27.2691 19.7009C27.3267 19.7052 27.3713 19.7092 27.4009 19.7121C27.4156 19.7136 27.4266 19.7147 27.4335 19.7155C27.437 19.7158 27.4394 19.7161 27.4408 19.7163C27.4415 19.7163 27.4419 19.7164 27.4421 19.7164C27.4422 19.7164 27.4422 19.7164 27.4421 19.7164C27.4421 19.7164 27.442 19.7164 27.442 19.7164C27.4419 19.7164 27.4418 19.7164 27.5 19.2198ZM22.5 21.3297C22.5 22.2371 22.7919 22.9331 23.3074 23.4351C23.8082 23.9228 24.4741 24.1825 25.1468 24.3244C26.4648 24.6025 28.0696 24.467 29 24.467V23.467C27.9304 23.467 26.5352 23.5953 25.3532 23.3459C24.7759 23.2241 24.3168 23.0222 24.0051 22.7187C23.7081 22.4295 23.5 22.0047 23.5 21.3297H22.5Z" fill="white"/>
<path d="M7.964 5C6.885 5 5.871 5.338 5.182 5.923L5.598 6.612C6.157 6.118 6.989 5.806 7.873 5.806C9.147 5.806 9.81 6.443 9.81 7.613V8.029H7.639C5.676 8.029 5 8.913 5 9.966C5 11.149 5.949 11.955 7.496 11.955C8.627 11.955 9.433 11.526 9.849 10.824V11.89H10.733V7.652C10.733 5.884 9.732 5 7.964 5ZM7.639 11.227C6.547 11.227 5.91 10.733 5.91 9.94C5.91 9.238 6.339 8.718 7.665 8.718H9.81V9.836C9.446 10.733 8.679 11.227 7.639 11.227Z" fill="white"/>
</svg>
